# xmcd CD database file
#
# Track frame offsets:
#	150
#	13457
#	24642
#	35087
#	46729
#	57372
#	70624
#	81513
#	94850
#	105711
#	119292
#	129974
#	143415
#	156975
#	168611
#	182703
#	195070
#	209107
#	220686
#	233468
#	246298
#	257159
#	267825
#	279062
#	289079
#	299961
#	310335
#
# Disc length: 4292 seconds
#
# Revision: 0
# Processed by: cddbd v1.5.1PL0 Copyright (c) Steve Scherf et al.
# Submitted via: CDex 1.40Release
#
DISCID=9310c21b
DTITLE=Porky Freeman - The Boogie Woogie Boy
DYEAR=1900
DGENRE=Country
TTITLE0=Boogie Woogie On Strings
TTITLE1=Everybody Loves That Boogie
TTITLE2=Electric Guitar Rag
TTITLE3=Okie Doakie Okie 
TTITLE4=Pickin' 8 To The Bar
TTITLE5=Fat Gal Blues
TTITLE6=Spanish Bells
TTITLE7=I Had A Little Wife
TTITLE8=Slick Chick Boogie No. 2
TTITLE9=The New Look
TTITLE10=Tiger Rag
TTITLE11=Rollin' South
TTITLE12=Boogie Woogie Boy
TTITLE13=Slow Train Boogie
TTITLE14=I Left My Heart In Mississippi
TTITLE15=Slick Chick Boogie No. 1
TTITLE16=That Baby's Changed
TTITLE17=Pecos Polka
TTITLE18=Indian Love Call
TTITLE19=Electric Guitar Blues
TTITLE20=Strumming Up A Boogie
TTITLE21=Something Old, New, Borrowed And Blue
TTITLE22=Oklahoma (Dixie darling)
TTITLE23=Tie A Little String Around Your Finger
TTITLE24=Than Suffer Jealousy
TTITLE25=Did I Ever Tell You (How Much I Love You)
TTITLE26=I Miss Your Lovin'
EXTD=ID3G: 2
EXTT0=
EXTT1=
EXTT2=
EXTT3=
EXTT4=
EXTT5=
EXTT6=
EXTT7=
EXTT8=
EXTT9=
EXTT10=
EXTT11=
EXTT12=
EXTT13=
EXTT14=
EXTT15=
EXTT16=
EXTT17=
EXTT18=
EXTT19=
EXTT20=
EXTT21=
EXTT22=
EXTT23=
EXTT24=
EXTT25=
EXTT26=
PLAYORDER=
